<svg xmlns="http://www.w3.org/2000/svg" width="32" height="32"><g fill="#FFF"><path d="M16.6 14.5c.4 0 .8 0 1-.2.3-.1.5-.3.6-.6l.2-.7c0-.3 0-.5-.2-.7a1 1 0 00-.6-.6 3 3 0 00-1-.1 76.2 76.2 0 00-1.6 0h-.4v3h.6l1.4-.1zm1.5 2.6L17 17a128 128 0 00-1.6 0h-.8v3.4h2.5a3.2 3.2 0 001.2-.2l.7-.6c.1-.2.3-.6.3-1s-.1-.7-.3-1c-.2-.2-.5-.4-.9-.5z"/><path d="M16 0a16 16 0 100 32 16 16 0 000-32zm6.6 20.5a3.7 3.7 0 01-1.1 1.4c-.6.4-1.2.7-1.8.8s-1.5.3-2.6.3h-6V9h5.4l2.4.1a5.1 5.1 0 011.6.5c.5.3 1 .6 1.2 1 .2.5.4 1 .4 1.6a3 3 0 01-.6 1.8c-.3.6-.8 1-1.5 1.2v.1a4 4 0 012.2 1.2c.5.5.8 1.3.8 2.2a4 4 0 01-.4 1.8z"/></g></svg>