<svg xmlns="http://www.w3.org/2000/svg" width="154" height="64"><g fill="#FFF"><path d="M59.3 42.8c-.8-.3-2.2.3-2.2.3s-3 2.5-17.8-.4c-10.9-2-16.6-1.9-16.6-1.9s1.8-12.5 1.3-16c0 0 0-.9-1-.9s-1.8.4-1.8 1 .2 4.4-.2 7.1c0 0-1.5 4.2-6.2 4S9 32.1 8.6 29.7 8 21 9.2 18.3c0 0 7.2.3 11.7-3.6s4.2-7.1 2-8.5S16 5 12.2 8.5s-5.1 7-5.1 7-5.7-1.2-4.4-7C4 2.2 12.4 3 12.4 3c1.8.3 1.8.5 2.4 0s1-2.2-1.7-2.3S2 2 .5 7.5c-1.7 5.8 1.4 10 5.6 10.6 0 0-2.3 10.1.5 15.1s7 5 8.6 5 4.6-1 5.4-2.3c0 0-.4 3.6-.7 4.9 0 0-7-.1-9.1 1-3.7 2-3 6.5-1.5 8.1 1.2 1.4 4.8 2.2 7.4 1a10 10 0 005.6-7.8s6.3-.4 12.5 1.4 14.8 3.6 17.3 3.6 8-.8 8.4-3c.1-1.4-.4-2.1-1.2-2.3zM15.9 9.3s3.2-2.5 4.8-1c0 0 1.3 1.4 0 2.9-.6.9-2.3 3.6-10.6 5 0 0 2.6-4.6 5.8-6.9zm.2 39s-4.5 2.4-5-1c-.4-2.1.9-3.1 1.7-3.5s1.8-.9 6.5-.7c0 0 0 3.3-3.2 5.1z"/><path d="M73.6 24.5v6.8a5.7 5.7 0 01-1 2.6 5.6 5.6 0 01-1 1.5c-.6.4-1-.6-1.2-1-1.4-3-.7-6.8-.2-9.9.3-1.4-2.7-1-2.9.2-.3 2-.9 5.2-.5 8-.6 0-1.2.3-1.4.7-.5 1-2 4.7-3.8 3.2-1.3-1-1.5-3.7-1.6-5.2-.2-2.1.1-4.3.8-6.3 0 .2 1.1-2.8 1.7-1.7.3.7 0 2.6-.6 3.1-1.6 1.2.8 1.7 1.8 1 1.8-1.4 3-5.7 0-6.2-3.6-.6-5.5 2.9-6.3 5.7a18 18 0 00-.5 4.8 15 15 0 01-3 4c-1.1.6-1.1-.2-1-.7l.8-8.3c.1-2-.1-2.7-.5-3.6s-4-2.8-7.2.8a11.9 11.9 0 00-3 7l-.8 1.4c-1.5 2.8-3.4 4-4 2-.6-1.6-1-3.7-.8-6.1 0-.1 3.5-5 5-11.8s1.3-10 .5-10.6-4.2-2-6.3 6.2A53 53 0 0035 30a41.6 41.6 0 01-1.2 2.4c-1.5 2.8-3.4 4-4 2-.7-1.6-1-3.7-.8-6.1 0-.1 3.5-5 5-11.8s1.3-10 .5-10.6-4.3-2-6.3 6.2-2.5 17.2-.5 23.2c0 0 1 3.3 3 3 1.7-.1 3.7-1.8 5-4.8 0 .6.2 1.2.4 1.8 0 0 1 3.3 3.1 3 1.4 0 3-1.2 4.1-3.3.7 1.8 2.3 3.3 4.2 3 2.7-.5 3.3-2 3.3-2s0 2.4 1.6 2.4c1.5 0 2.8-1 4-3.2l.7-1.4c.4 2 1.3 4 3 4.8 3 1.3 5.7-1.2 7.2-3.6a4.3 4.3 0 002.5 2.6c1.3.5 2.6 0 3.8-1v3.6c-.7 0-1.3.1-1.6.4A11.7 11.7 0 0067.8 51c.2 2.5 2.6 3.6 4.7 2.7 3.1-1.4 3.6-6 3.8-8.9.7-6.8.2-13.9.2-20.8 0-1.2-3-.7-3 .4zM30.3 13.3c.6-2.7 1.3-3.7 2-3.7s.8.7.4 3-2 8.6-4.1 12.7c0 0 1-9.4 1.7-12zm8.4 0c.7-2.7 1.3-3.7 2-3.7s.9.7.4 3-2 8.6-4.1 12.7c0 0 1-9.4 1.7-12zm12.8 12.4c0 .6-.4 4.3-1 6.3s-.9 2.8-2.5 3.4c-1.7.7-2.4-1.4-2.4-1.4-1.2-3.2.4-6 1.6-7.9s2.6-2.1 3.3-2a1.4 1.4 0 011 1.6zm22 18a18 18 0 01-1.6 7.9c-.7.1-1-.1-1.2-1.3a10.7 10.7 0 010-3.2 9 9 0 012.8-5.2v1.9zm18.8-22a10.8 10.8 0 01-5.7-6c-1.3-3.9 2.9-6.7 6.3-6.5 3.4.2 5.1 3.6 5 6.7-.1 1-.8 3.5-2.2 2.3-1-1-1.3-2.4-1.5-3.7-.2-1.2-3.1-.5-3 .8.6 3.7 4.6 7.7 8 3.9 3-3.4 1.6-9.5-2.6-11.3A10.2 10.2 0 0084 12.3c-2.8 4.8 2.7 9.6 6.6 11.3 6.2 3.3 6.4 14-1.8 14.1a8.3 8.3 0 01-7.7-5.6c-.6-1.7-.3-7.5 2-8 1.8-.4 1.3-2-.5-1.7-3.7.7-5 5.5-4.7 8.9.6 5.3 5.6 8.3 10.7 8.3 4.6 0 8.6-3 9.6-7.6 1-4.5-2-8.8-6-10.3z"/><path d="M110.9 37.5c-2.9-1.5-1.2-7.5-.8-9.8.3-1.5 1.5-3.8-.5-4.3-2.4-.6-5.2 1.7-7.3 3.8 0-2.5.2-5 .6-7.5a15.6 15.6 0 007.1-7.4c1.3-2.6 2-8-2.4-6.4-4 1.4-5.4 6-6.6 9.7a29.3 29.3 0 00-1.1 4.4l-1.2.4c-1.7.5-1.5 1.4.2 1a32 32 0 00.8-.3 75 75 0 00.3 17c0 .5 3 0 2.9-.8-.3-2.5-.5-5-.5-7.4.2 0 .5-.2.6-.4a22.6 22.6 0 014-3.9l.4-.3c.7-.6.8-.6.4 0 0 .8-.4 1.9-.6 2.8-.5 3-2.1 8.9 1.3 10.7.8.5 3.5-.7 2.4-1.3zm-6.5-24l1-2.7c.6-1 1.8-4.8 2.7-3 .8 1.4-.4 3.7-.9 5a11.9 11.9 0 01-4 5.4 35 35 0 011.2-4.8z"/><path d="M121.6 30.5c0-3.3-.3-7.5-4.3-7.8-4.3-.4-6 4-6 7.5 0 .2.1.4.3.5 0 3.2.8 7.3 4.5 7.2 4.2 0 5.5-3.7 5.5-7.4zm-5 5.5c-2.4-1-2.2-5.2-2-7.2a.5.5 0 00-.3-.6c.3-2 1.1-5 2.9-3.5 1.4 1.2 1.4 4.2 1.5 5.9 0 1.1 0 6.2-2 5.4zm36.5 12.6c-1-3-3.6-4-6.3-4.2a12 12 0 00-1-2c-4-5.8-13.3-5-19.6-2l-.1-2.7c2.5.1 5-.9 6.5-3 1.7-2.4 1.4-6.6.8-9.3-.6-2.5-3.1-2-5-1.3a7.7 7.7 0 00-1.8 1.3l.1-2c.2-1.5-2.8-1.1-2.9.2-.5 6.2-.3 12.4-.4 18.5a14.8 14.8 0 00-5.4 12.1c0 2.3 2 4 4 2.4 2.9-2.2 3.7-6.6 4.1-10 .2-1.5.2-3 .2-4.5a14 14 0 0115.2-.1 7 7 0 012.3 2.7c-1.7.3-3.4.8-4.7 1.5-1.7.8-4.2 2.7-4 4.9 0 1.7 1 2.6 2.2 3h.3c6.1 1 10.7-2.6 9.8-7.7 3 1.6 4.1 5.4 3 8.7-2.3 7.3-11.5 9-16.9 4-.6-.5-3.2.6-2.7 1 7.8 7.1 27 .5 22.3-11.5zm-30-1.8a15.5 15.5 0 01-1 5.1 22 22 0 01-.9 1.6s-.2.1-.3-.7c0-2.8.8-5.5 2.4-7.9l-.1 1.9zm3.2-17.9a.8.8 0 00.2-.1c.5-1 1.2-1.8 1.9-2.5a7.8 7.8 0 011.8-1.6c.3.2.6 1 .7 2.2.3 2.7.5 10-3.9 9.4l-1 .1.3-7.5zm13.1 23.8c-1.7-.4-1.6-2-1.3-3.1.4-2.5 3.5-3.9 6-4 1.4 3.6.4 8-4.7 7z"/></g></svg>