<svg data-name="Layer 1" xmlns="http://www.w3.org/2000/svg" viewBox="0 0 108 38"><path d="M46.8 28.2a2 2 0 00.6 0v1.3a3.4 3.4 0 01-1.2.2 1.8 1.8 0 01-1.8-1 5 5 0 01-3.3 1.2c-1.6 0-3-1-3-2.7 0-2.3 2-3 3.9-3a11.6 11.6 0 012.3.3v-.3c0-1-.8-1.9-2.3-1.9a7.8 7.8 0 00-3.2.7v-1.8a10.7 10.7 0 013.4-.6c2.4 0 4 1.2 4 3.9v3.1a.6.6 0 00.6.6zM40.1 27a1.4 1.4 0 001.6 1.3 3.6 3.6 0 002.6-1v-1.5a10.2 10.2 0 00-2-.2c-1 0-2.2.3-2.2 1.4zM53 20.6a5.3 5.3 0 012.8.7V23a4.3 4.3 0 00-2.5-.7 2.9 2.9 0 100 5.7 5.3 5.3 0 002.6-.7v1.8a6.6 6.6 0 01-3 .6 4.4 4.4 0 01-4.6-4.5 4.5 4.5 0 014.8-4.7zM65.8 28.2a2 2 0 00.6 0v1.3a3.4 3.4 0 01-1.2.2 1.8 1.8 0 01-1.8-1 5 5 0 01-3.3 1.2c-1.6 0-3-1-3-2.7 0-2.3 2-3 3.9-3a11.6 11.6 0 012.3.3v-.3c0-1-.8-1.9-2.3-1.9a7.8 7.8 0 00-3.2.7v-1.8a10.7 10.7 0 013.4-.6c2.4 0 4 1.2 4 3.9v3.1a.6.6 0 00.6.6zM59.1 27a1.4 1.4 0 001.6 1.3 3.6 3.6 0 002.6-1v-1.5a10.2 10.2 0 00-2-.2c-1 0-2.2.3-2.2 1.4zM76.7 16.8v12.8h-1.8v-1.4a4 4 0 01-3.3 1.6 4.6 4.6 0 010-9.2 4 4 0 013.1 1.4v-5.2h2zm-4.8 5.5a2.9 2.9 0 000 5.8 3 3 0 002.8-1.8v-2.1a3 3 0 00-2.8-1.9zM83 20.6c3.5 0 4.7 2.8 4.1 5.4h-6.6c.3 1.5 1.8 2.2 3.4 2.2a6.4 6.4 0 002.8-.6v1.6a7.5 7.5 0 01-3.2.6c-2.7 0-5-1.5-5-4.6a4.4 4.4 0 014.5-4.6zm0 1.6a2.4 2.4 0 00-2.5 2.3h4.9a2 2 0 00-2.3-2.3zM89.1 29.6V21h1.7v1a4 4 0 013-1.3 3 3 0 012.7 1.4 4.3 4.3 0 013-1.4 3.2 3.2 0 013.4 3.5v5.5h-2v-5.4a1.7 1.7 0 00-1.8-1.8 3 3 0 00-2.1 1.1v6.1h-2v-5.4a1.7 1.7 0 00-1.8-1.8 3.1 3.1 0 00-2.3 1.3v6h-2zM111.5 20.9h2l-4.1 9.9c-1 2.3-2.2 3-3.5 3a5 5 0 01-1.2-.2V32a3 3 0 00.9.1c1 0 1.7-.7 2.2-2l.1-.4-4.1-8.9h2.1l3 6.6zM40.7 1.5v5a4 4 0 012.8-1.2A3.4 3.4 0 0147 9v5.4h-2V9.1a1.9 1.9 0 00-2-2 3 3 0 00-2.4 1.4v5.8h-2V1.5h2zM52.4 2.4v3.1h3.2v1.7h-3.2v4c0 1.2.6 1.6 1.7 1.6a4.7 4.7 0 001.8-.4v1.7a7.1 7.1 0 01-2.4.4 2.7 2.7 0 01-3-2.9V7.2H49V5.5h1.6V3zM58.1 14.3V5.5h1.7v1.1a4 4 0 013-1.3 3 3 0 012.7 1.4 4.3 4.3 0 013-1.4A3.2 3.2 0 0172 8.8v5.5h-2V8.9A1.7 1.7 0 0068 7 3 3 0 0066 8.2v6.1h-2V8.9A1.7 1.7 0 0062.2 7 3.1 3.1 0 0060 8.4v5.9h-2zM74.7 1.5h1.9v12.8h-1.9zM15.4 0h-.1L0 1.6v28l15.3 9.1 15.3-9v-28zm13.2 28.5l-13.3 7.9-13.3-8V17l13.2 7.9v1.4l-9-5.4v1.4l9 5.4v1.5l-9-5.4v1.4l9 5.4 9.3-5.5v-5.9l4-2.4v11.6zm0-13.2l-3.7 2.2-1.7 1-8-4.8V15l6.9 4-.2.1-1 .6-5.7-3.4v1.4l4.5 2.7-1 .7-3.4-2v1.4l2.2 1.3-2.3 1.3-13.1-7.8 13.1-8zm0-1.4L15.2 6 2 14V3.3L15.3 2l13.3 1.4V14z" fill="#fff"/></svg>